<?xml version="1.0" encoding="utf-8" ?><svg xmlns="http://www.w3.org/2000/svg" xmlns:xlink="http://www.w3.org/1999/xlink" width="109" height="109" viewBox="0 0 109 109"><defs><linearGradient id="gradient_0" gradientUnits="userSpaceOnUse" x1="28.310596" y1="69.111031" x2="77.657234" y2="32.866089"><stop offset="0" stop-color="#838179"/><stop offset="1" stop-color="#A8AB9B"/></linearGradient></defs><path fill="url(#gradient_0)" d="M15.3913 42.4458C16.168 39.4034 18.1181 33.9816 19.415 30.9231C21.9316 24.988 24.1991 21.6754 28.7697 17.4138C33.0827 13.0984 37.5885 9.07646 43.0995 6.3407C46.5609 4.41921 50.1362 2.33299 53.9282 1.17085C55.1388 0.799816 57.6297 0.873388 58.9783 0.928396C65.2117 1.42512 70.2687 5.57675 75.0087 9.09386C82.8018 14.8764 88.4247 23.2216 91.3894 32.4167C93.6229 39.3081 96.1495 46.6843 94.2886 53.959C93.1872 58.2647 91.9632 64.1278 90.0034 68.1558C86.8591 74.6185 85.0199 79.84 80.0562 85.1068C76.3013 89.2855 73.9124 94.9673 70.9798 99.7855C69.5099 102.2 68.5454 104.471 66.3256 106.402C65.4653 107.15 64.8327 106.851 63.9998 107.084L63.5021 107.084C62.6525 107.16 61.977 107.702 61.1606 107.808C60.5639 107.885 57.0812 106.657 56.4203 106.321C54.7765 105.487 50.4959 99.697 49.1849 98.1056C46.4071 94.7337 43.0103 91.608 39.8372 88.5991C38.9009 87.7112 37.4283 86.145 36.4619 85.4374C36.4197 85.4954 36.4373 85.4573 36.4372 85.561L36.6103 85.682L36.4571 85.7136C32.673 83.8693 30.2581 80.8362 28.0575 77.2247C27.9768 77.0681 26.8948 76.2958 26.6589 76.0675C24.9359 74.3996 23.7076 72.3919 22.4836 70.3687C19.4308 65.3226 15.6607 59.2489 14.3869 53.4257C14.085 51.3443 14.3868 48.2079 14.3012 45.8968C14.4025 45.0085 15.0659 43.3423 15.3913 42.4458Z"/><defs><linearGradient id="gradient_1" gradientUnits="userSpaceOnUse" x1="89.14064" y1="73.672798" x2="35.858353" y2="32.938717"><stop offset="0" stop-color="#CBC5B6"/><stop offset="1" stop-color="#FFFBF9"/></linearGradient></defs><path fill="url(#gradient_1)" d="M58.9783 0.928396C65.2117 1.42512 70.2687 5.57675 75.0087 9.09386C82.8018 14.8764 88.4247 23.2216 91.3894 32.4167C93.6229 39.3081 96.1495 46.6843 94.2886 53.959C93.1872 58.2647 91.9632 64.1278 90.0034 68.1558C86.8591 74.6185 85.0199 79.84 80.0562 85.1068C76.3013 89.2855 73.9124 94.9673 70.9798 99.7855C69.5099 102.2 68.5454 104.471 66.3256 106.402C65.4653 107.15 64.8327 106.851 63.9998 107.084C63.8986 106.697 63.9093 106.278 63.8225 105.88C63.9421 105.538 63.9476 105.15 63.9998 104.792C64.0846 101.555 65.1883 97.2621 64.8942 94.2294C65.285 90.9579 65.7721 87.2389 65.9228 84.0158C66.1932 78.2315 65.9366 71.9382 65.9374 66.1118C65.9838 65.4335 65.9396 64.1195 65.9395 63.3912L65.9392 57.6799C65.9389 51.9138 66.4619 38.904 64.7118 33.7014C63.8986 27.8099 62.0964 21.9401 61.518 16.2055C61.4528 15.5591 61.499 14.7097 61.3451 14.0979C61.1779 13.4338 60.5599 12.7177 60.4703 11.9793C60.1748 9.41897 59.672 6.02252 58.9783 3.50655C58.6567 1.99695 58.6293 2.44853 58.9783 0.928396Z"/><path fill="#9D8972" d="M58.9783 0.928396C65.2117 1.42512 70.2687 5.57675 75.0087 9.09386C82.8018 14.8764 88.4247 23.2216 91.3894 32.4167C93.6229 39.3081 96.1495 46.6843 94.2886 53.959C93.1872 58.2647 91.9632 64.1278 90.0034 68.1558C86.8591 74.6185 85.0199 79.84 80.0562 85.1068C76.3013 89.2855 73.9124 94.9673 70.9798 99.7855C69.5099 102.2 68.5454 104.471 66.3256 106.402C65.4653 107.15 64.8327 106.851 63.9998 107.084C63.8986 106.697 63.9093 106.278 63.8225 105.88C63.9421 105.538 63.9476 105.15 63.9998 104.792C64.0807 105.504 63.7955 105.894 64.7118 105.88C65.1136 105.414 65.8631 104.097 66.2917 103.457C68.9452 99.4941 70.5263 96.5238 72.6638 92.3883C73.9544 89.8912 75.6752 87.3174 77.4866 85.1833C78.5948 83.8778 80.0244 82.3983 80.889 80.9231C82.7962 77.6691 85.2377 73.7159 86.8068 70.3756C87.7749 68.3149 88.514 65.9123 89.2237 63.7474C90.7323 59.3046 92.0211 56.1284 93.0368 51.273C93.5593 48.7755 92.9578 45.7971 92.3252 43.3841C91.5772 40.2347 91.3863 38.0849 90.2745 34.8922C90.0887 34.3382 89.9981 33.5986 89.8327 33.0848C89.083 30.7564 87.5199 27.6715 86.4631 25.4314C84.9395 22.2016 84.739 22.41 82.6976 19.6193C80.3095 16.2038 75.765 11.984 72.3362 9.49926C71.1178 8.61635 69.9891 7.47042 68.6724 6.68089C66.9462 5.64579 60.3321 2.43492 59.0417 2.75476C59.0099 3.00964 58.9954 3.25055 58.9783 3.50655C58.6567 1.99695 58.6293 2.44853 58.9783 0.928396Z"/><defs><linearGradient id="gradient_2" gradientUnits="userSpaceOnUse" x1="74.220482" y1="60.135677" x2="81.062393" y2="66.224869"><stop offset="0" stop-color="#4A2D28"/><stop offset="1" stop-color="#937C67"/></linearGradient></defs><path fill="url(#gradient_2)" d="M81.6672 54.8187C82.6472 54.0586 84.6051 52.8703 85.256 52.0478C85.9814 51.1311 88.4889 46.6319 89.3233 46.1997C89.7926 46.5668 89.0126 48.6108 88.9686 49.1794C88.8827 50.2885 87.2673 56.3409 86.6084 56.7597C85.0307 59.358 84.9845 62.4083 82.1466 65.2452C80.6189 67.3658 72.3109 74.5541 70.4969 74.9649C69.5253 74.6893 68.8501 73.569 69.3982 72.5469C69.8079 71.2619 69.9081 70.6023 70.177 69.2782C71.3401 61.0958 74.8336 58.837 81.6672 54.8187Z"/><path fill="#9D8972" d="M81.6672 54.8187C82.6472 54.0586 84.6051 52.8703 85.256 52.0478C85.9814 51.1311 88.4889 46.6319 89.3233 46.1997C89.7926 46.5668 89.0126 48.6108 88.9686 49.1794C88.8827 50.2885 87.2673 56.3409 86.6084 56.7597C86.5732 56.4358 86.9015 56.1245 86.9696 55.7927L86.7772 55.6758C86.7274 54.7331 87.0705 54.6797 86.9577 53.3808C86.8035 53.4939 86.2234 55.4715 85.6632 55.6072C86.0001 55.1899 86.2387 54.8089 86.442 54.3156L86.4015 54.2781C86.2393 54.6216 85.8182 55.3895 85.4836 55.5349C84.891 54.8596 84.8053 54.8103 85.7191 54.5599C84.3278 54.4729 82.6021 55.3467 81.6672 54.8187Z"/><path fill="#9D8972" d="M74.3907 71.6385C75.637 68.9971 76.6187 69.422 78.4408 67.9919C79.5265 67.1398 80.9168 65.4282 82.0478 64.9935L82.145 65.0377L82.1466 65.2452C80.6189 67.3658 72.3109 74.5541 70.4969 74.9649C69.5253 74.6893 68.8501 73.569 69.3982 72.5469C69.4001 73.333 69.1376 74.3615 70.3871 74.7805C71.3226 75.0943 71.8551 73.276 72.3754 72.7986C72.9718 72.2515 73.6701 71.9715 74.3907 71.6385Z"/><path fill="white" d="M83.0765 57.0806C83.6519 57.4554 80.7538 61.2831 80.3746 61.791C78.7244 64.0013 75.1184 67.0212 72.1897 67.458C71.7528 67.2444 73.6291 63.632 73.8982 63.1711C75.9146 59.7176 79.3778 58.0548 83.0765 57.0806Z"/><defs><linearGradient id="gradient_3" gradientUnits="userSpaceOnUse" x1="64.736359" y1="8.379158" x2="67.160233" y2="12.474093"><stop offset="0" stop-color="#E7EADC"/><stop offset="1" stop-color="#FDFBFB"/></linearGradient></defs><path fill="url(#gradient_3)" d="M62.8863 7.62623C63.8315 5.24738 69.0881 10.6343 69.8258 11.6498C70.3032 12.308 68.5524 13.1828 67.4252 12.8758C67.229 12.7525 66.3268 12.5554 66.0078 12.3425C64.6104 11.3751 62.6834 10.2792 61.8265 8.79642C61.6739 8.53231 62.6687 7.95691 62.8863 7.62623Z"/><defs><linearGradient id="gradient_4" gradientUnits="userSpaceOnUse" x1="66.900459" y1="8.6345472" x2="65.365829" y2="11.61847"><stop offset="0" stop-color="#634738"/><stop offset="1" stop-color="#896251"/></linearGradient></defs><path fill="url(#gradient_4)" d="M62.8863 7.62623C63.8315 5.24738 69.0881 10.6343 69.8258 11.6498C70.3032 12.308 68.5524 13.1828 67.4252 12.8758C67.531 12.709 67.5816 12.5827 67.6619 12.4013C69.6142 11.1619 64.6432 8.83974 63.8225 8.39477C63.1376 7.93872 63.4573 8.41999 62.8863 7.62623Z"/><path fill="#9D8972" d="M67.4252 12.8758C67.229 12.7525 66.3268 12.5554 66.0078 12.3425C64.6104 11.3751 62.6834 10.2792 61.8265 8.79642C61.6739 8.53231 62.6687 7.95691 62.8863 7.62623C63.4573 8.41999 63.1376 7.93872 63.8225 8.39477C62.5385 9.03567 66.0044 11.7019 66.5529 12.0849C66.7788 12.2427 67.38 12.2996 67.6619 12.4013C67.5816 12.5827 67.531 12.709 67.4252 12.8758Z"/><path fill="#9D8972" d="M73.1303 15.8987C73.8827 15.9738 74.1629 17.2552 74.5421 17.783C75.1177 18.5843 78.5978 21.9324 77.7945 22.8591C77.0807 23.096 76.4865 22.3044 76.0739 21.8484C74.1839 19.9259 71.4746 18.7192 69.9684 16.0596C71.029 15.9655 72.0544 16.0662 73.1303 15.8987Z"/><path fill="#605451" d="M15.3913 42.4458C16.168 39.4034 18.1181 33.9816 19.415 30.9231C21.9316 24.988 24.1991 21.6754 28.7697 17.4138C33.0827 13.0984 37.5885 9.07646 43.0995 6.3407C46.5609 4.41921 50.1362 2.33299 53.9282 1.17085C55.1388 0.799816 57.6297 0.873388 58.9783 0.928396C58.6293 2.44853 58.6567 1.99695 58.9783 3.50655C59.672 6.02252 60.1748 9.41897 60.4703 11.9793C60.5599 12.7177 61.1779 13.4338 61.3451 14.0979C61.499 14.7097 61.4528 15.5591 61.518 16.2055C62.0964 21.9401 63.8986 27.8099 64.7118 33.7014L64.6463 33.784C64.1941 32.6654 64.0349 28.8206 63.5631 28.0849C62.6774 28.2581 63.2346 28.4992 62.156 28.057C61.8363 28.5954 62.501 31.7277 62.7056 32.495L62.6478 32.563C62.6653 32.5873 62.2403 30.7443 62.201 30.5587C61.5522 27.5961 62.18 24.5629 61.5074 21.6218C61.1371 20.0026 60.7489 18.1169 60.2049 16.5637C59.3913 14.2401 58.7943 11.9736 58.3766 9.56244C57.9418 7.05251 57.2978 5.24637 55.77 3.18558C55.1412 1.89532 50.0232 5.13256 49.3628 5.60739C46.1202 7.93865 43.8661 11.8852 40.0721 13.9605C40.0953 13.9482 38.7429 15.6421 38.6969 15.7154C35.8913 20.1825 32.571 24.3134 30.8415 29.3855C30.2856 31.0158 30.5413 33.5814 29.8814 35.315C28.5224 38.6758 23.8565 42.7405 25.4456 46.6313C25.7865 47.4661 26.0674 47.2657 26.5636 47.6525C25.7348 47.6968 26.2629 48.5489 26.3672 49.0462C26.1843 49.2458 26.0926 49.4263 25.956 49.6582C26.0016 49.902 26.491 51.6403 26.488 51.6538L26.306 51.4569C26.0936 52.1121 22.4987 56.2689 22.5459 56.6439C22.7463 58.236 24.9097 62.0889 25.4996 63.2666C28.3461 68.9495 31.3695 74.4457 36.0667 78.7845C37.9695 80.5153 41.353 81.5395 43.7501 82.342C43.8348 82.4718 47.8591 84.253 48.3204 84.5074C48.7438 84.7408 49.0706 85.2996 49.3785 85.4374C50.0354 85.8685 50.4282 86.5845 51.0832 87.0101C52.9272 88.2085 55.9127 89.2138 57.2304 90.6866C58.1949 91.7646 58.5659 93.2693 59.5145 94.3202C60.1008 94.2081 61.7076 90.5107 62.0967 89.873C62.4945 89.221 63.3488 88.5588 63.5021 87.814L63.5092 87.9133C63.6593 90.1665 63.1883 92.482 63.3556 95.0296L63.4241 95.0625C63.4707 94.6123 63.375 94.1587 63.3648 93.708C63.329 92.1276 63.5587 90.6231 63.6443 89.0573C63.6785 88.4317 64.3596 83.0115 64.6087 82.6332L64.6497 82.9326L64.7375 82.975C65.2907 82.3207 65.7684 82.8572 65.7387 83.5857L65.7678 83.4965C65.6172 85.5256 64.7992 93.9707 64.8942 94.2294C65.1883 97.2621 64.0846 101.555 63.9998 104.792C63.9476 105.15 63.9421 105.538 63.8225 105.88C63.9093 106.278 63.8986 106.697 63.9998 107.084L63.5021 107.084C62.6525 107.16 61.977 107.702 61.1606 107.808C60.5639 107.885 57.0812 106.657 56.4203 106.321C54.7765 105.487 50.4959 99.697 49.1849 98.1056C46.4071 94.7337 43.0103 91.608 39.8372 88.5991C38.9009 87.7112 37.4283 86.145 36.4619 85.4374C36.4197 85.4954 36.4373 85.4573 36.4372 85.561L36.6103 85.682L36.4571 85.7136C32.673 83.8693 30.2581 80.8362 28.0575 77.2247C27.9768 77.0681 26.8948 76.2958 26.6589 76.0675C24.9359 74.3996 23.7076 72.3919 22.4836 70.3687C19.4308 65.3226 15.6607 59.2489 14.3869 53.4257C14.085 51.3443 14.3868 48.2079 14.3012 45.8968C14.4025 45.0085 15.0659 43.3423 15.3913 42.4458Z"/><defs><linearGradient id="gradient_5" gradientUnits="userSpaceOnUse" x1="22.610193" y1="60.58004" x2="18.256813" y2="62.916958"><stop offset="0" stop-color="#ABA5A0"/><stop offset="1" stop-color="#D7D3D2"/></linearGradient></defs><path fill="url(#gradient_5)" d="M14.3012 45.8968L14.3973 45.9753C15.2762 45.5992 15.0171 48.1314 14.9544 48.6179L15.1321 48.6179C15.1181 49.6769 15.6136 50.6713 15.6678 51.5842C16.1347 56.6411 17.5605 57.5599 19.5309 61.3425C20.0626 62.3631 20.258 63.7143 20.6996 64.7729C20.8309 65.0876 21.2898 65.5295 21.4969 65.9151C22.4212 67.6363 28.0612 75.7012 28.2773 76.5048C28.301 76.7259 28.3712 76.8511 28.4962 77.0327L28.4897 77.2247C28.3458 77.2337 28.2016 77.2273 28.0575 77.2247C27.9768 77.0681 26.8948 76.2958 26.6589 76.0675C24.9359 74.3996 23.7076 72.3919 22.4836 70.3687C19.4308 65.3226 15.6607 59.2489 14.3869 53.4257C14.085 51.3443 14.3868 48.2079 14.3012 45.8968Z"/><path fill="#C6C7BC" d="M14.9544 48.6179L15.1321 48.6179C15.1181 49.6769 15.6136 50.6713 15.6678 51.5842C15.4371 51.3634 15.35 50.7163 15.3661 50.4067L15.2837 50.3196C14.6255 50.5613 15.3583 52.2616 14.9544 48.6179Z"/><defs><linearGradient id="gradient_6" gradientUnits="userSpaceOnUse" x1="28.05442" y1="81.108467" x2="36.999031" y2="82.273499"><stop offset="0" stop-color="#CBBFC2"/><stop offset="1" stop-color="#E6EBE1"/></linearGradient></defs><path fill="url(#gradient_6)" d="M28.0575 77.2247C28.2016 77.2273 28.3458 77.2337 28.4897 77.2247C28.8 77.792 28.8909 78.093 29.5612 77.8674C31.0248 80.1595 35.6458 83.6091 36.4619 85.4374C36.4197 85.4954 36.4373 85.4573 36.4372 85.561L36.6103 85.682L36.4571 85.7136C32.673 83.8693 30.2581 80.8362 28.0575 77.2247Z"/><defs><linearGradient id="gradient_7" gradientUnits="userSpaceOnUse" x1="16.399002" y1="44.897305" x2="14.143898" y2="45.869743"><stop offset="0" stop-color="#8B7F82"/><stop offset="1" stop-color="#AAA39B"/></linearGradient></defs><path fill="url(#gradient_7)" d="M14.3012 45.8968C14.4025 45.0085 15.0659 43.3423 15.3913 42.4458C16.1887 42.948 15.3281 47.637 15.1321 48.6179L14.9544 48.6179C15.0171 48.1314 15.2762 45.5992 14.3973 45.9753L14.3012 45.8968Z"/><path fill="#C6C7BC" d="M28.2773 76.5048C28.6029 77.0641 29.1974 77.35 29.5612 77.8674C28.8909 78.093 28.8 77.792 28.4897 77.2247L28.4962 77.0327C28.3712 76.8511 28.301 76.7259 28.2773 76.5048Z"/><path fill="#6C6B66" d="M63.5021 107.084C63.4142 106.588 63.5168 106.279 63.8225 105.88C63.9093 106.278 63.8986 106.697 63.9998 107.084L63.5021 107.084Z"/><defs><linearGradient id="gradient_8" gradientUnits="userSpaceOnUse" x1="46.230694" y1="54.866409" x2="38.736595" y2="65.518509"><stop offset="0" stop-color="#462A24"/><stop offset="1" stop-color="#664B3F"/></linearGradient></defs><path fill="url(#gradient_8)" d="M26.5636 47.6525C27.0055 47.841 27.3406 48.2637 27.7498 48.4698C30.0886 49.6473 32.2111 51.373 34.6397 52.3638C38.0678 53.7624 41.7808 54.4669 45.3194 55.5308C46.2616 55.8141 47.496 55.7686 48.397 56.308C50.5677 57.7674 52.6011 59.7216 54.4021 61.6322C54.5064 62.667 56.2234 66.7297 56.6528 67.9283C57.4485 70.1489 58.6415 71.8696 57.899 74.3396C56.0718 74.9706 57.8754 75.6699 55.7625 74.0519L55.6309 74.0867C53.0904 72.0126 49.2616 71.0659 46.2358 69.8772C42.9136 68.572 40.0348 66.7956 37.2938 64.4928C37.0691 64.3039 36.0923 63.0012 35.7833 62.6459C33.1197 59.4859 31.7985 58.109 29.6088 54.4252C28.6086 52.7427 26.9557 51.0415 26.3672 49.0462C26.2629 48.5489 25.7348 47.6968 26.5636 47.6525Z"/><path fill="white" d="M52.6492 67.0811C50.5312 65.6007 49.3993 65.4067 47.3192 64.3771C44.3101 62.7843 41.6019 60.4679 39.3965 57.8828C39.0741 57.5048 37.7161 56.1729 37.7736 55.724L37.8668 55.6533C38.5165 55.6201 41.9529 56.3742 42.7749 56.5531C44.5608 57.2071 46.6301 57.2985 48.283 58.3528C49.9239 59.3993 52.1231 61.8381 53.0239 63.5658C53.6445 64.5032 53.421 65.181 53.8048 66.1118C54.1194 66.7576 54.9439 67.9096 54.8463 68.6273L54.7591 68.6992C54.2309 68.6268 53.0968 67.4794 52.6492 67.0811Z"/><path fill="#E7CFC4" d="M42.7749 56.5531C44.5608 57.2071 46.6301 57.2985 48.283 58.3528C49.9239 59.3993 52.1231 61.8381 53.0239 63.5658C53.6445 64.5032 53.421 65.181 53.8048 66.1118L53.6014 66.1118L53.4553 66.1855L53.3472 66.1118C51.4675 64.2522 49.8267 62.1903 47.8757 60.3933C45.7201 58.4078 44.0808 58.9989 42.7749 56.5531Z"/><path fill="#C6C7BC" d="M53.0239 63.5658C53.6445 64.5032 53.421 65.181 53.8048 66.1118L53.6014 66.1118L53.4553 66.1855L53.3472 66.1118C53.0378 65.3264 53.2355 64.3848 53.0239 63.5658Z"/><path fill="#C6C7BC" d="M53.6014 66.1118L53.8048 66.1118C54.1194 66.7576 54.9439 67.9096 54.8463 68.6273L54.7591 68.6992C54.2309 68.6268 53.0968 67.4794 52.6492 67.0811C53.1529 67.1699 53.5163 67.8476 53.8921 67.9038C54.0283 67.5048 53.8266 66.5231 53.6014 66.1118Z"/><path fill="#8C634D" d="M30.5265 52.9269C30.7979 52.9675 35.1899 55.0515 35.9554 55.3536C36.7351 58.2402 39.2332 60.8317 41.3754 62.9587C42.3069 63.8836 43.4173 64.721 44.2884 65.6911L44.2611 65.7722L44.1011 65.7966C41.4101 67.0896 34.2712 59.7612 33.0746 57.6114C32.8651 57.235 32.8577 56.7776 32.6194 56.4049C31.955 55.366 30.532 54.272 30.5265 52.9269Z"/><path fill="#544742" d="M63.5021 87.814C63.5805 86.3224 64.2908 83.6189 64.562 81.8767C65.0518 78.7299 65.0969 76.7417 65.0912 73.5643L65.0906 66.574C65.0922 64.9124 65.0805 63.2806 65.2398 61.6248C65.2592 63.2209 65.7358 62.7018 65.8147 61.2863C66.143 61.932 65.8553 65.0945 65.9319 66.0508L65.9374 66.1118C65.9366 71.9382 66.1932 78.2315 65.9228 84.0158C65.7721 87.2389 65.285 90.9579 64.8942 94.2294C64.7992 93.9707 65.6172 85.5256 65.7678 83.4965L65.7387 83.5857C65.7684 82.8572 65.2907 82.3207 64.7375 82.975L64.6497 82.9326L64.6087 82.6332C64.3596 83.0115 63.6785 88.4317 63.6443 89.0573C63.5587 90.6231 63.329 92.1276 63.3648 93.708C63.375 94.1587 63.4707 94.6123 63.4241 95.0625L63.3556 95.0296C63.1883 92.482 63.6593 90.1665 63.5092 87.9133L63.5021 87.814Z"/><path fill="#6C6B66" d="M43.7501 82.342C44.5955 82.369 47.507 84.0018 48.5361 84.3921C49.0335 84.5808 49.6634 84.303 50.1695 84.4322C50.83 84.6008 51.5454 85.0068 52.1803 85.2724C54.4063 86.2038 59.2117 87.6568 59.6426 90.4676C59.5046 90.4244 59.4646 90.2811 59.3991 90.1553C58.5337 88.4939 57.671 87.8721 56.0563 87.0682L55.8812 87.1211C55.1851 86.3712 55.4746 86.7095 55.1762 87.0208L54.9518 87.0501C54.751 87.4818 55.2704 87.7722 54.7886 88.2186C54.7772 88.2166 53.7055 87.6863 53.6626 87.6374C53.4131 87.6205 51.9123 85.9302 51.9115 85.9275C51.8503 85.7129 52.0443 85.3772 51.8198 85.2233C51.2141 84.8082 49.5998 84.2687 48.8763 84.5582C48.8817 84.8373 49.3012 85.0868 49.3785 85.4374C49.0706 85.2996 48.7438 84.7408 48.3204 84.5074C47.8591 84.253 43.8348 82.4718 43.7501 82.342Z"/><path fill="#544742" d="M55.6309 74.0867L55.7625 74.0519C57.8754 75.6699 56.0718 74.9706 57.899 74.3396C57.8283 74.7488 57.8547 76.7809 57.899 77.2247C57.089 75.6723 56.879 75.3439 55.6309 74.0867Z"/><path fill="#C6C7BC" d="M39.0951 36.4191C39.4524 36.6414 40.3809 38.3505 40.6998 38.8165C42.9927 42.1669 46.6899 44.2617 49.3196 47.3187C49.9087 48.0034 52.3102 51.1675 51.9381 52.1408C51.3149 52.3791 48.5046 50.0882 47.4713 49.6582C45.1653 47.7522 40.4688 46.7837 38.162 43.547C38.6517 43.7794 39.0304 44.1652 39.8106 43.8431C40.4819 43.5659 42.4047 41.8097 43.5077 42.3694C44.4592 42.8522 41.5733 40.1379 41.5289 40.0725C40.7217 38.8826 39.7065 37.7332 39.0951 36.4191Z"/><path fill="#C6C7BC" d="M60.1047 63.0916C61.0219 63.3308 61.5285 64.7986 61.8709 65.5645C63.0034 68.0976 63.2242 68.7987 63.1614 71.4363C63.1515 71.8505 62.9841 76.7069 63.0509 76.8875L63.4293 77.0165L63.3912 77.0739L63.1556 77.0169C61.6326 76.4249 61.235 76.1112 60.1047 74.7984C59.5175 72.306 58.6968 64.5041 60.1047 63.0916Z"/></svg>